<svg xmlns="http://www.w3.org/2000/svg" viewBox="0 0 512 512" style="height: 512px; width: 512px;"><path d="M0 0h512v512H0z" fill="#000" fill-opacity="1"></path><g class="" transform="translate(0,0)" style="touch-action: none;"><g transform="translate(25.6, 25.6) scale(0.9, 0.9) rotate(0, 256, 256)"><path d="M256 28L224 156C192 140 160 108 128 60C128 108 128 156 160 188C128 205 96 188 64 156C64 188 64 236 112 268C80 284 48 268 32 236C32 284 48 332 80 364C64 380 32 364 16 348C16 412 64 460 128 492L204.8 492L221.5 423.4L204.3 337.3L106.4 342.3C106.4 342.3 126.7 267.1 141.3 238.6C146.3 229 148.5 220.6 161.3 220.3C172.6 220.3 181.7 230.1 181.7 242.2C181.7 254.2 172.6 264 161.3 264C159 264 156.7 263.5 154.7 262.7L149.6 309.5C179.2 300.6 206.5 290.7 233.6 278.6C233.6 278.5 233.5 278.4 233.5 278.3C227.3 269.5 223.1 256.8 223.1 242.6C223.1 228.5 227.2 215.8 233.5 206.9C239.6 198 247.6 193.2 256 193.2C264.5 193.2 272.5 198 278.6 206.9C284.8 215.8 288.8 228.5 288.8 242.6C288.8 256.8 284.8 269.5 278.6 278.3C278.5 278.6 278.1 279 278 279.2C305.3 291.3 334.1 299.8 362.3 309.5L357.3 262.7C355.1 263.5 353 264 350.6 264C339.4 264 330.3 254.2 330.3 242.2C330.3 230.1 339.4 220.3 350.6 220.3C363.4 220.6 365.8 229 370.6 238.6C385.4 267.1 405.6 342.3 405.6 342.3L307.7 337.3L290.5 423.4L307.2 492L384 492C448 460 496 412 496 348C480 364 448 380 432 364C464 332 480 284 480 236C464 268 432 284 400 268C448 236 448 188 448 156C416 188 384 204 352 188C384 156 384 108 384 60C352 108 320 140 288 156Z" class="selected" fill="#ffffff" fill-opacity="1"></path></g></g></svg>